<svg width="24" height="24" viewBox="0 0 24 24" fill="none" xmlns="http://www.w3.org/2000/svg">
<path d="M12 13.43C13.7231 13.43 15.12 12.0331 15.12 10.31C15.12 8.58687 13.7231 7.19 12 7.19C10.2769 7.19 8.88001 8.58687 8.88001 10.31C8.88001 12.0331 10.2769 13.43 12 13.43Z" stroke="url(#paint0_linear_12_1765)" stroke-width="1.5"/>
<path d="M3.62001 8.49C5.59001 -0.169998 18.42 -0.159997 20.38 8.5C21.53 13.58 18.37 17.88 15.6 20.54C13.59 22.48 10.41 22.48 8.39001 20.54C5.63001 17.88 2.47001 13.57 3.62001 8.49Z" stroke="url(#paint1_linear_12_1765)" stroke-width="1.5"/>
<defs>
<linearGradient id="paint0_linear_12_1765" x1="3.37726" y1="11.9975" x2="20.6227" y2="11.9975" gradientUnits="userSpaceOnUse">
<stop stop-color="#5DE0E6"/>
<stop offset="1" stop-color="#004AAD"/>
</linearGradient>
<linearGradient id="paint1_linear_12_1765" x1="3.37726" y1="11.9975" x2="20.6227" y2="11.9975" gradientUnits="userSpaceOnUse">
<stop stop-color="#5DE0E6"/>
<stop offset="1" stop-color="#004AAD"/>
</linearGradient>
</defs>
</svg>
